<?xml version="1.0" encoding="utf-8"?>
<!-- Generator: Adobe Illustrator 24.3.0, SVG Export Plug-In . SVG Version: 6.00 Build 0)  -->
<svg version="1.1" id="layer" xmlns="http://www.w3.org/2000/svg" xmlns:xlink="http://www.w3.org/1999/xlink" x="0px" y="0px"
	 viewBox="0 0 958 666" style="enable-background:new 0 0 958 666;" xml:space="preserve">
<style type="text/css">
	.st0{fill:#0A1647;}
	.st1{clip-path:url(#SVGID_3_);}
	.st2{clip-path:url(#SVGID_5_);fill:#2BBDF7;}
	.st3{clip-path:url(#SVGID_7_);}
	.st4{clip-path:url(#SVGID_9_);fill:#2891F9;}
	.st5{clip-path:url(#SVGID_11_);}
	.st6{clip-path:url(#SVGID_13_);fill:#2BBDF7;}
	.st7{clip-path:url(#SVGID_15_);}
	.st8{clip-path:url(#SVGID_17_);fill:#2B6DEF;}
	.st9{clip-path:url(#SVGID_19_);}
	.st10{clip-path:url(#SVGID_21_);fill:#2891F9;}
	.st11{clip-path:url(#SVGID_23_);}
	.st12{clip-path:url(#SVGID_25_);fill:#2B6DEF;}
	.st13{clip-path:url(#SVGID_27_);}
	.st14{clip-path:url(#SVGID_29_);fill:#2BBDF7;}
</style>
<g>
	<g>
		<path id="SVGID_1_" class="st0" d="M513,303.8h17.6v91.7h-16.4v-62.9l-27,45.1h-8.3l-27-45.3v63.1h-16.3v-91.7H453l29.9,50.1
			L513,303.8z M731.2,386.5c-7-7.1-10.9-16.8-10.6-26.8c-0.3-10.1,3.6-19.8,10.6-26.8c7.1-7.2,16.7-11.1,26.7-10.9
			c13.1-0.3,25.3,6.8,31.6,18.5l-13.1,7.7c-3.4-7.1-10.7-11.6-18.6-11.2c-5.9-0.2-11.6,2.2-15.8,6.4c-4.1,4.3-6.3,10.1-6.2,16
			c-0.1,6,2.1,11.8,6.2,16.1c4.2,4.2,9.9,6.5,15.8,6.4c7.9,0.2,15.2-4.1,18.8-11.2l13.2,7.6c-6.4,11.7-18.6,18.9-31.8,18.7
			C748,397.2,738.4,393.5,731.2,386.5z M691.5,395.6v-71.8h15.3v71.7L691.5,395.6z M692.2,310.3c-1.9-1.8-2.9-4.3-2.9-6.9
			s1-5.1,2.9-6.9c1.8-1.9,4.3-3,6.9-3c2.6,0,5.1,1.1,6.9,3c3.8,3.9,3.8,10.1-0.1,14C702.2,314.2,696,314.2,692.2,310.3z
			 M677.6,338.7H660v34.4c0,9.1,5.9,9,17.6,8.4v14c-23.4,2.9-32.8-3.6-32.8-22.4v-34.4h-13.1v-14.9h13.1v-20h15.3v20h17.6
			L677.6,338.7z M580.9,382.6c6,0.1,11.7-2.2,16-6.4c4.3-4.4,6.6-10.4,6.4-16.5c0.1-6.1-2.2-12-6.4-16.3c-8.9-8.8-23.1-8.8-32,0
			c-4.3,4.3-6.6,10.2-6.4,16.3c-0.2,6.2,2.1,12.1,6.4,16.5c4.2,4.2,9.8,6.5,15.7,6.4H580.9z M603,323.8h15.3v71.7H603v-10.3
			c-5.7,8-15,12.6-24.7,12.2c-9.5,0.1-18.5-3.8-24.9-10.9c-6.8-7.2-10.5-16.9-10.3-26.8c-0.3-10,3.4-19.6,10.2-26.8
			c6.4-7.1,15.5-11,25-10.8c9.8-0.5,19.1,4,24.8,12L603,323.8z"/>
	</g>
</g>
<g>
	<g>
		<defs>
			<polygon id="SVGID_2_" points="254.3,329.8 279.8,385.7 317.6,364.1 317.6,364.1 317.6,320.7 			"/>
		</defs>
		<clipPath id="SVGID_3_">
			<use xlink:href="#SVGID_2_"  style="overflow:visible;"/>
		</clipPath>
		<g class="st1">
			<g>
				<defs>
					<rect id="SVGID_4_" x="-929.9" y="38.3" width="2811" height="8395.3"/>
				</defs>
				<clipPath id="SVGID_5_">
					<use xlink:href="#SVGID_4_"  style="overflow:visible;"/>
				</clipPath>
				<rect x="230.7" y="297.1" class="st2" width="110.6" height="112.3"/>
			</g>
		</g>
	</g>
</g>
<g>
	<g>
		<defs>
			<polygon id="SVGID_6_" points="366.5,288.2 342.9,279.4 317.6,277.3 317.6,320.7 317.6,412.5 355.5,434.2 385.7,373.1 
				366.5,314.3 			"/>
		</defs>
		<clipPath id="SVGID_7_">
			<use xlink:href="#SVGID_6_"  style="overflow:visible;"/>
		</clipPath>
		<g class="st3">
			<g>
				<defs>
					<rect id="SVGID_8_" x="-929.9" y="38.3" width="2811" height="8395.3"/>
				</defs>
				<clipPath id="SVGID_9_">
					<use xlink:href="#SVGID_8_"  style="overflow:visible;"/>
				</clipPath>
				<rect x="294" y="253.7" class="st4" width="115.3" height="204.1"/>
			</g>
		</g>
	</g>
</g>
<g>
	<g>
		<defs>
			<polygon id="SVGID_10_" points="364.3,277.3 355.5,299 355.5,433.8 393.4,412.1 393.4,277.3 			"/>
		</defs>
		<clipPath id="SVGID_11_">
			<use xlink:href="#SVGID_10_"  style="overflow:visible;"/>
		</clipPath>
		<g class="st5">
			<g>
				<defs>
					<rect id="SVGID_12_" x="-929.9" y="38.3" width="2811" height="8395.3"/>
				</defs>
				<clipPath id="SVGID_13_">
					<use xlink:href="#SVGID_12_"  style="overflow:visible;"/>
				</clipPath>
				<rect x="331.9" y="253.7" class="st6" width="85.1" height="203.8"/>
			</g>
		</g>
	</g>
</g>
<g>
	<g>
		<defs>
			<polygon id="SVGID_14_" points="355.5,255.6 317.6,277.3 355.5,299 393.4,277.3 			"/>
		</defs>
		<clipPath id="SVGID_15_">
			<use xlink:href="#SVGID_14_"  style="overflow:visible;"/>
		</clipPath>
		<g class="st7">
			<g>
				<defs>
					<rect id="SVGID_16_" x="-929.9" y="38.3" width="2811" height="8395.3"/>
				</defs>
				<clipPath id="SVGID_17_">
					<use xlink:href="#SVGID_16_"  style="overflow:visible;"/>
				</clipPath>
				<rect x="294" y="232" class="st8" width="123" height="90.6"/>
			</g>
		</g>
	</g>
</g>
<g>
	<g>
		<defs>
			<polygon id="SVGID_18_" points="279.8,342.4 241.9,300.2 166.2,277.3 166.2,412.1 204.1,433.8 214.9,359.2 241.9,364.1 
				279.8,385.7 			"/>
		</defs>
		<clipPath id="SVGID_19_">
			<use xlink:href="#SVGID_18_"  style="overflow:visible;"/>
		</clipPath>
		<g class="st9">
			<g>
				<defs>
					<rect id="SVGID_20_" x="-929.9" y="38.3" width="2811" height="8395.3"/>
				</defs>
				<clipPath id="SVGID_21_">
					<use xlink:href="#SVGID_20_"  style="overflow:visible;"/>
				</clipPath>
				<rect x="142.6" y="253.7" class="st10" width="160.8" height="203.8"/>
			</g>
		</g>
	</g>
</g>
<g>
	<g>
		<defs>
			<polygon id="SVGID_22_" points="204.1,255.6 166.2,277.3 279.8,342.4 296.9,332.6 317.6,320.7 			"/>
		</defs>
		<clipPath id="SVGID_23_">
			<use xlink:href="#SVGID_22_"  style="overflow:visible;"/>
		</clipPath>
		<g class="st11">
			<g>
				<defs>
					<rect id="SVGID_24_" x="-929.9" y="38.3" width="2811" height="8395.3"/>
				</defs>
				<clipPath id="SVGID_25_">
					<use xlink:href="#SVGID_24_"  style="overflow:visible;"/>
				</clipPath>
				<rect x="142.6" y="232" class="st12" width="198.7" height="134"/>
			</g>
		</g>
	</g>
</g>
<g>
	<g>
		<defs>
			<polygon id="SVGID_26_" points="204.1,342.4 204.1,433.8 241.9,412.1 241.9,364.1 			"/>
		</defs>
		<clipPath id="SVGID_27_">
			<use xlink:href="#SVGID_26_"  style="overflow:visible;"/>
		</clipPath>
		<g class="st13">
			<g>
				<defs>
					<rect id="SVGID_28_" x="-929.9" y="38.3" width="2811" height="8395.3"/>
				</defs>
				<clipPath id="SVGID_29_">
					<use xlink:href="#SVGID_28_"  style="overflow:visible;"/>
				</clipPath>
				<rect x="180.4" y="318.7" class="st14" width="85.1" height="138.7"/>
			</g>
		</g>
	</g>
</g>
</svg>
