<svg xmlns="http://www.w3.org/2000/svg" width="773" height="315" fill="none" viewBox="0 0 773 315"><path fill="#2891F9" d="M52.5 96.9238L157.5 157.524V197.924L87.5 157.524V238.324L52.5 218.124V96.9238Z"/><path fill="#2BBDF7" d="M87.5 238.324V157.524L122.5 177.724V218.124L87.5 238.324Z"/><path fill="#2B6DEF" d="M52.5 96.9239L87.5 76.7239L192.5 137.324L157.5 157.524L52.5 96.9239Z"/><path fill="#2BBDF7" d="M157.5 157.524L192.5 137.324V177.724L157.5 197.924V157.524Z"/><path fill="#2891F9" d="M192.5 96.9238V218.124L227.5 238.324V117.124L192.5 96.9238Z"/><path fill="#2BBDF7" d="M262.5 96.9238L227.5 117.124V238.324L262.5 218.124V96.9238Z"/><path fill="#2B6DEF" d="M227.5 76.7239L262.5 96.9239L227.5 117.124L192.5 96.9239L227.5 76.7239Z"/><path fill="#061024" d="M507 128.124H524.7V209.724H507V198.224C500.7 207.124 489.9 212.924 478.5 212.224 467.7 212.224 457.6 207.724 450 200.124 442.4 191.824 438 181.024 438 169.524 437.4 158.024 441.8 147.224 449.4 138.924 457 130.624 467.1 126.224 477.9 126.824 489.3 126.224 499.4 131.324 506.4 140.224L507 128.124zM481.7 195.124C488.7 195.124 495 192.624 500.1 188.124 505.2 183.024 507.7 176.024 507.7 169.624 507.7 162.624 505.2 156.224 500.1 151.124 490 140.924 473.5 140.924 463.3 151.124 458.2 156.224 455.7 162.624 455.7 169.624 455.7 176.624 458.2 183.624 463.3 188.124 467.8 192.524 474.7 195.124 481.7 195.124zM592 145.324H571.7V184.224C571.7 194.424 578.7 194.424 592 193.824V209.724C565.4 212.924 554.6 205.924 554.6 184.224V145.324H539.4V128.124H554.6V105.224H572.3V128.124H592.6L592 145.324zM609.1 112.824C604.7 108.324 604.7 101.324 609.1 97.5238 613.5 93.0238 619.9 93.0238 624.3 96.9238 624.3 96.9238 624.3 96.9238 624.9 97.5238 629.3 102.024 629.3 109.024 624.9 113.424 620.5 117.324 613.5 117.324 609.1 112.824zM607.8 209.724V128.124H625.5V209.724H607.8zM653.5 199.524C645.3 191.224 640.8 180.424 641.5 168.924 640.9 157.424 645.3 146.624 653.5 138.324 661.7 130.024 672.5 125.624 683.9 126.224 699.1 125.624 713.1 133.824 720 147.224L704.8 156.124C701 147.824 692.8 142.724 683.9 143.424 676.9 143.424 670.6 145.924 666.2 150.424 661.8 155.524 659.2 161.924 659.2 168.924 659.2 175.924 661.7 182.324 666.2 187.424 671.3 192.524 677.6 195.024 683.9 194.424 692.8 194.424 701 189.924 705.5 181.724L720.7 190.624C713.7 204.024 699.2 212.324 683.9 211.624 672.5 211.624 661.7 207.224 653.5 199.524zM403.7 105.224L369.5 162.624 335.3 105.224H315V209.724H334V137.724L364.4 189.324H373.9L405 138.324V209.724H424V105.224H403.7z"/></svg>